<svg xmlns="http://www.w3.org/2000/svg" aria-hidden="true" role="img" width="1em" height="1em" preserveAspectRatio="xMidYMid meet" viewBox="0 0 48 48"><g fill="none" stroke="#000" stroke-linecap="round" stroke-linejoin="round" stroke-width="4"><path d="M7.94977 11.9498H39.9498"/><path d="M7.94977 23.9498H39.9498"/><path d="M7.94977 35.9498H39.9498"/></g></svg>15.434-22.779 31.369v60.43h-37.93V95.967h36.413v16.694h.51a39.907 39.907 0 0 1 35.928-19.733c38.445 0 45.533 25.288 45.533 58.186l-.016 67.013ZM56.955 79.27c-12.157.002-22.014-9.852-22.016-22.009c-.002-12.157 9.851-22.014 22.008-22.016c12.157-.003 22.014 9.851 22.016 22.008A22.013 22.013 0 0 1 56.955 79.27m18.966 138.858H37.95V95.967h37.97v122.16ZM237.033.018H18.89C8.58-.098.125 8.161-.001 18.471v219.053c.122 10.315 8.576 18.582 18.89 18.474h218.144c10.336.128 18.823-8.139 18.966-18.474V18.454c-.147-10.33-8.635-18.588-18.966-18.453"/></svg>xmlns="http://www.w3.org/2000/svg" aria-hidden="true" role="img" width="1em" height="1em" preserveAspectRatio="xMidYMid meet" viewBox="0 0 72 72"><path fill="#61b2e4" d="M58.042 16.667s-2.584 2.083-6.209 2.458c0 0-5.708-6.375-13.875-.833c-3.666 2.583-4 8.041-3.375 10c0 0-11.083.875-20.75-10.459c0 0-4.333 7.5 2.834 13.5c0 0-2.119.334-4.132-1.333c0 0-.952 7.75 7.715 9.917c0 0-.583 1-4.083 0c0 0 .583 6.333 8.833 7.25c0 0-4.457 4.583-14.478 4c0 0 16.561 12.416 34.478-2.584c10-8.5 9.667-20.75 9.5-22.583c0 0 3.95-3 4.975-4.917c0 0-3.058 1-5.558 1c0 0 3.333-1.75 4.125-5.416z"/><path fill="none" stroke="#000" stroke-linecap="round" stroke-linejoin="round" stroke-miterlimit="10" stroke-width="2" d="M58.042 16.667s-2.584 2.083-6.209 2.458c0 0-5.708-6.375-13.875-.833c-3.666 2.583-4 8.041-3.375 10c0 0-11.083.875-20.75-10.459c0 0-4.333 7.5 2.834 13.5c0 0-2.119.334-4.132-1.333c0 0-.952 7.75 7.715 9.917c0 0-.583 1-4.083 0c0 0 .583 6.333 8.833 7.25c0 0-4.457 4.583-14.478 4c0 0 16.561 12.416 34.478-2.584c10-8.5 9.667-20.75 9.5-22.583c0 0 3.95-3 4.975-4.917c0 0-3.058 1-5.558 1c0 0 3.333-1.75 4.125-5.416z"/></svg>meet" viewBox="0 0 48 48"><g fill-rule="evenodd" clip-rule="evenodd"><path d="M24 4C12.9543 4 4 12.9543 4 24C4 35.0457 12.9543 44 24 44C35.0457 44 44 35.0457 44 24C44 12.9543 35.0457 4 24 4ZM0 24C0 10.7452 10.7452 0 24 0C37.2548 0 48 10.7452 48 24C48 37.2548 37.2548 48 24 48C10.7452 48 0 37.2548 0 24Z"/><path d="M19.183 45.4715C18.9896 45.2218 18.9896 42.9972 19.183 38.798C17.1112 38.8695 15.8022 38.7257 15.256 38.3666C14.4368 37.8279 13.6166 36.1666 12.8889 34.9958C12.1612 33.825 10.546 33.6399 9.8938 33.3782C9.24158 33.1164 9.07785 32.0495 11.691 32.8564C14.3042 33.6633 14.4316 35.8606 15.256 36.3744C16.0804 36.8882 18.0512 36.6634 18.9446 36.2518C19.8379 35.8402 19.7722 34.3077 19.9315 33.7006C20.1329 33.1339 19.423 33.0082 19.4074 33.0036C18.5353 33.0036 13.9537 32.0072 12.6952 27.5705C11.4368 23.1339 13.0579 20.234 13.9227 18.9874C14.4992 18.1563 14.4482 16.3851 13.7697 13.6736C16.2333 13.3588 18.1344 14.1342 19.4732 16C19.4745 16.0107 21.2283 14.9571 24 14.9571C26.7718 14.9571 27.7551 15.8153 28.514 16C29.2728 16.1847 29.8798 12.734 34.5666 13.6736C33.5881 15.5968 32.7686 18 33.3941 18.9874C34.0195 19.9748 36.4742 23.1146 34.9664 27.5705C33.9611 30.5412 31.9851 32.3522 29.0382 33.0036C28.7002 33.1114 28.5313 33.2854 28.5313 33.5254C28.5313 33.8855 28.9881 33.9248 29.6463 35.6116C30.085 36.7361 30.1167 39.9479 29.7413 45.2469C28.7904 45.489 28.0506 45.6515 27.5219 45.7346C26.5845 45.8819 25.5667 45.9645 24.5666 45.9964C23.5666 46.0283 23.2193 46.0247 21.8368 45.896C20.9151 45.8102 20.0305 45.6687 19.183 45.4715Z"/></g></svg>6.437-23.314 0l-23.21 23.21l29.443 29.443c6.842-2.312 14.688-.761 20.142 4.693c5.48 5.489 7.02 13.402 4.652 20.266l28.375 28.376c6.865-2.365 14.786-.835 20.269 4.657c7.663 7.66 7.663 20.075 0 27.74c-7.665 7.666-20.08 7.666-27.749 0c-5.764-5.77-7.188-14.235-4.27-21.336l-26.462-26.462l-.003 69.637a19.82 19.82 0 0 1 5.188 3.71c7.663 7.66 7.663 20.076 0 27.747c-7.665 7.662-20.086 7.662-27.74 0c-7.663-7.671-7.663-20.086 0-27.746a19.654 19.654 0 0 1 6.421-4.281V94.196a19.378 19.378 0 0 1-6.421-4.281c-5.806-5.798-7.202-14.317-4.227-21.446L81.47 39.442L4.83 116.077c-6.44 6.443-6.44 16.884 0 23.322l111.774 111.768c6.435 6.438 16.873 6.438 23.316 0l111.251-111.249c6.438-6.44 6.438-16.887 0-23.324"/></svg>256 256"><path fill="#F7DF1E" d="M0 0h256v256H0V0Z"/><path d="m67.312 213.932l19.59-11.856c3.78 6.701 7.218 12.371 15.465 12.371c7.905 0 12.89-3.092 12.89-15.12v-81.798h24.057v82.138c0 24.917-14.606 36.259-35.916 36.259c-19.245 0-30.416-9.967-36.087-21.996m85.07-2.576l19.588-11.341c5.157 8.421 11.859 14.607 23.715 14.607c9.969 0 16.325-4.984 16.325-11.858c0-8.248-6.53-11.17-17.528-15.98l-6.013-2.58c-17.357-7.387-28.87-16.667-28.87-36.257c0-18.044 13.747-31.792 35.228-31.792c15.294 0 26.292 5.328 34.196 19.247l-18.732 12.03c-4.125-7.389-8.591-10.31-15.465-10.31c-7.046 0-11.514 4.468-11.514 10.31c0 7.217 4.468 10.14 14.778 14.608l6.014 2.577c20.45 8.765 31.963 17.7 31.963 37.804c0 21.654-17.012 33.51-39.867 33.51c-22.339 0-36.774-10.654-43.819-24.574"/></svg>